<mxfile host="app.diagrams.net" modified="2023-03-06T17:07:59.407Z" agent="5.0 (Macintosh; Intel Mac OS X 10_15_7) AppleWebKit/537.36 (KHTML, like Gecko) Chrome/109.0.0.0 Safari/537.36" etag="kLQlNxd0uzEj6gHtDYv7" version="21.0.2" type="github">
  <diagram id="C5RBs43oDa-KdzZeNtuy" name="Page-1">
    <mxGraphModel dx="914" dy="465" grid="1" gridSize="10" guides="1" tooltips="1" connect="1" arrows="1" fold="1" page="1" pageScale="1" pageWidth="827" pageHeight="1169" math="0" shadow="0">
      <root>
        <mxCell id="WIyWlLk6GJQsqaUBKTNV-0" />
        <mxCell id="WIyWlLk6GJQsqaUBKTNV-1" parent="WIyWlLk6GJQsqaUBKTNV-0" />
        <mxCell id="WIyWlLk6GJQsqaUBKTNV-2" value="" style="rounded=0;html=1;jettySize=auto;orthogonalLoop=1;fontSize=11;endArrow=block;endFill=0;endSize=8;strokeWidth=1;shadow=0;labelBackgroundColor=none;edgeStyle=orthogonalEdgeStyle;" parent="WIyWlLk6GJQsqaUBKTNV-1" source="WIyWlLk6GJQsqaUBKTNV-3" target="WIyWlLk6GJQsqaUBKTNV-6" edge="1">
          <mxGeometry relative="1" as="geometry" />
        </mxCell>
        <mxCell id="WIyWlLk6GJQsqaUBKTNV-3" value="guess next letter" style="rounded=1;whiteSpace=wrap;html=1;fontSize=12;glass=0;strokeWidth=1;shadow=0;" parent="WIyWlLk6GJQsqaUBKTNV-1" vertex="1">
          <mxGeometry x="204" y="200" width="120" height="40" as="geometry" />
        </mxCell>
        <mxCell id="WIyWlLk6GJQsqaUBKTNV-4" value="Yes" style="rounded=0;html=1;jettySize=auto;orthogonalLoop=1;fontSize=11;endArrow=block;endFill=0;endSize=8;strokeWidth=1;shadow=0;labelBackgroundColor=none;edgeStyle=orthogonalEdgeStyle;entryX=0.5;entryY=0;entryDx=0;entryDy=0;" parent="WIyWlLk6GJQsqaUBKTNV-1" source="WIyWlLk6GJQsqaUBKTNV-6" target="B9W_OTDJqOT9CeGI0wqJ-3" edge="1">
          <mxGeometry y="20" relative="1" as="geometry">
            <mxPoint as="offset" />
            <mxPoint x="264" y="390" as="targetPoint" />
          </mxGeometry>
        </mxCell>
        <mxCell id="WIyWlLk6GJQsqaUBKTNV-5" value="No" style="edgeStyle=orthogonalEdgeStyle;rounded=0;html=1;jettySize=auto;orthogonalLoop=1;fontSize=11;endArrow=block;endFill=0;endSize=8;strokeWidth=1;shadow=0;labelBackgroundColor=none;" parent="WIyWlLk6GJQsqaUBKTNV-1" source="WIyWlLk6GJQsqaUBKTNV-6" target="WIyWlLk6GJQsqaUBKTNV-7" edge="1">
          <mxGeometry y="10" relative="1" as="geometry">
            <mxPoint as="offset" />
          </mxGeometry>
        </mxCell>
        <mxCell id="WIyWlLk6GJQsqaUBKTNV-6" value="Is the letter in the word?" style="rhombus;whiteSpace=wrap;html=1;shadow=0;fontFamily=Helvetica;fontSize=12;align=center;strokeWidth=1;spacing=6;spacingTop=-4;" parent="WIyWlLk6GJQsqaUBKTNV-1" vertex="1">
          <mxGeometry x="214" y="290" width="100" height="80" as="geometry" />
        </mxCell>
        <mxCell id="WIyWlLk6GJQsqaUBKTNV-7" value="draw hangman" style="rounded=1;whiteSpace=wrap;html=1;fontSize=12;glass=0;strokeWidth=1;shadow=0;" parent="WIyWlLk6GJQsqaUBKTNV-1" vertex="1">
          <mxGeometry x="364" y="310" width="120" height="40" as="geometry" />
        </mxCell>
        <mxCell id="B9W_OTDJqOT9CeGI0wqJ-0" value="random word generator" style="rounded=1;whiteSpace=wrap;html=1;fontSize=12;glass=0;strokeWidth=1;shadow=0;" vertex="1" parent="WIyWlLk6GJQsqaUBKTNV-1">
          <mxGeometry x="204" y="100" width="120" height="40" as="geometry" />
        </mxCell>
        <mxCell id="B9W_OTDJqOT9CeGI0wqJ-1" value="" style="endArrow=classic;html=1;rounded=0;exitX=0.5;exitY=1;exitDx=0;exitDy=0;entryX=0.5;entryY=0;entryDx=0;entryDy=0;" edge="1" parent="WIyWlLk6GJQsqaUBKTNV-1" source="B9W_OTDJqOT9CeGI0wqJ-0" target="WIyWlLk6GJQsqaUBKTNV-3">
          <mxGeometry width="50" height="50" relative="1" as="geometry">
            <mxPoint x="424" y="300" as="sourcePoint" />
            <mxPoint x="474" y="250" as="targetPoint" />
          </mxGeometry>
        </mxCell>
        <mxCell id="B9W_OTDJqOT9CeGI0wqJ-3" value="fill in the letter" style="rounded=1;whiteSpace=wrap;html=1;fontSize=12;glass=0;strokeWidth=1;shadow=0;" vertex="1" parent="WIyWlLk6GJQsqaUBKTNV-1">
          <mxGeometry x="204" y="410" width="120" height="40" as="geometry" />
        </mxCell>
        <mxCell id="B9W_OTDJqOT9CeGI0wqJ-4" value="No" style="endArrow=classic;html=1;rounded=0;exitX=0.5;exitY=1;exitDx=0;exitDy=0;" edge="1" parent="WIyWlLk6GJQsqaUBKTNV-1" source="B9W_OTDJqOT9CeGI0wqJ-6">
          <mxGeometry width="50" height="50" relative="1" as="geometry">
            <mxPoint x="399" y="510" as="sourcePoint" />
            <mxPoint x="264" y="620" as="targetPoint" />
          </mxGeometry>
        </mxCell>
        <mxCell id="B9W_OTDJqOT9CeGI0wqJ-5" value="Yes" style="endArrow=classic;html=1;rounded=0;exitX=0;exitY=0.5;exitDx=0;exitDy=0;" edge="1" parent="WIyWlLk6GJQsqaUBKTNV-1" source="B9W_OTDJqOT9CeGI0wqJ-6">
          <mxGeometry width="50" height="50" relative="1" as="geometry">
            <mxPoint x="424" y="480" as="sourcePoint" />
            <mxPoint x="264" y="170" as="targetPoint" />
            <Array as="points">
              <mxPoint x="144" y="520" />
              <mxPoint x="144" y="430" />
              <mxPoint x="144" y="330" />
              <mxPoint x="144" y="170" />
            </Array>
          </mxGeometry>
        </mxCell>
        <mxCell id="B9W_OTDJqOT9CeGI0wqJ-6" value="Any letter left?" style="rhombus;whiteSpace=wrap;html=1;shadow=0;fontFamily=Helvetica;fontSize=12;align=center;strokeWidth=1;spacing=6;spacingTop=-4;" vertex="1" parent="WIyWlLk6GJQsqaUBKTNV-1">
          <mxGeometry x="214" y="480" width="100" height="80" as="geometry" />
        </mxCell>
        <mxCell id="B9W_OTDJqOT9CeGI0wqJ-7" value="" style="endArrow=classic;html=1;rounded=0;exitX=0.5;exitY=1;exitDx=0;exitDy=0;" edge="1" parent="WIyWlLk6GJQsqaUBKTNV-1" source="B9W_OTDJqOT9CeGI0wqJ-3" target="B9W_OTDJqOT9CeGI0wqJ-6">
          <mxGeometry width="50" height="50" relative="1" as="geometry">
            <mxPoint x="464" y="520" as="sourcePoint" />
            <mxPoint x="514" y="470" as="targetPoint" />
          </mxGeometry>
        </mxCell>
        <mxCell id="B9W_OTDJqOT9CeGI0wqJ-8" value="No" style="endArrow=classic;html=1;rounded=0;exitX=1;exitY=0.5;exitDx=0;exitDy=0;" edge="1" parent="WIyWlLk6GJQsqaUBKTNV-1" source="B9W_OTDJqOT9CeGI0wqJ-10">
          <mxGeometry width="50" height="50" relative="1" as="geometry">
            <mxPoint x="514" y="380" as="sourcePoint" />
            <mxPoint x="264" y="170" as="targetPoint" />
            <Array as="points">
              <mxPoint x="684" y="330" />
              <mxPoint x="684" y="170" />
              <mxPoint x="524" y="170" />
            </Array>
          </mxGeometry>
        </mxCell>
        <mxCell id="B9W_OTDJqOT9CeGI0wqJ-9" value="You win" style="rounded=1;whiteSpace=wrap;html=1;fontSize=12;glass=0;strokeWidth=1;shadow=0;" vertex="1" parent="WIyWlLk6GJQsqaUBKTNV-1">
          <mxGeometry x="204" y="620" width="120" height="40" as="geometry" />
        </mxCell>
        <mxCell id="B9W_OTDJqOT9CeGI0wqJ-10" value="Finish hangman?" style="rhombus;whiteSpace=wrap;html=1;shadow=0;fontFamily=Helvetica;fontSize=12;align=center;strokeWidth=1;spacing=6;spacingTop=-4;" vertex="1" parent="WIyWlLk6GJQsqaUBKTNV-1">
          <mxGeometry x="534" y="290" width="100" height="80" as="geometry" />
        </mxCell>
        <mxCell id="B9W_OTDJqOT9CeGI0wqJ-11" value="" style="endArrow=classic;html=1;rounded=0;exitX=1;exitY=0.5;exitDx=0;exitDy=0;entryX=0;entryY=0.5;entryDx=0;entryDy=0;" edge="1" parent="WIyWlLk6GJQsqaUBKTNV-1" source="WIyWlLk6GJQsqaUBKTNV-7" target="B9W_OTDJqOT9CeGI0wqJ-10">
          <mxGeometry width="50" height="50" relative="1" as="geometry">
            <mxPoint x="514" y="370" as="sourcePoint" />
            <mxPoint x="564" y="320" as="targetPoint" />
          </mxGeometry>
        </mxCell>
        <mxCell id="B9W_OTDJqOT9CeGI0wqJ-12" value="You lose" style="rounded=1;whiteSpace=wrap;html=1;fontSize=12;glass=0;strokeWidth=1;shadow=0;" vertex="1" parent="WIyWlLk6GJQsqaUBKTNV-1">
          <mxGeometry x="524" y="410" width="120" height="40" as="geometry" />
        </mxCell>
        <mxCell id="B9W_OTDJqOT9CeGI0wqJ-13" value="Yes" style="endArrow=classic;html=1;rounded=0;exitX=0.5;exitY=1;exitDx=0;exitDy=0;entryX=0.5;entryY=0;entryDx=0;entryDy=0;" edge="1" parent="WIyWlLk6GJQsqaUBKTNV-1" source="B9W_OTDJqOT9CeGI0wqJ-10" target="B9W_OTDJqOT9CeGI0wqJ-12">
          <mxGeometry width="50" height="50" relative="1" as="geometry">
            <mxPoint x="514" y="480" as="sourcePoint" />
            <mxPoint x="564" y="430" as="targetPoint" />
          </mxGeometry>
        </mxCell>
      </root>
    </mxGraphModel>
  </diagram>
</mxfile>
